<svg xmlns="http://www.w3.org/2000/svg" xmlns:xlink="http://www.w3.org/1999/xlink" version="1.1" x="0px" y="0px" viewBox="0 0 100 100" style="enable-background:new 0 0 100 100;" xml:space="preserve"><path d="M85,5H15C9.477,5,5,9.477,5,15v70c0,5.523,4.477,10,10,10h70c5.523,0,10-4.477,10-10V15C95,9.477,90.523,5,85,5z M90,85   c0,2.757-2.243,5-5,5H15c-2.757,0-5-2.243-5-5V15c0-2.757,2.243-5,5-5h70c2.757,0,5,2.243,5,5V85z"/><path d="M15,85h70V15H15V85z M82.5,17.5l-2.5,5H20l-2.5-5H82.5z M20,25h60l2.5,57.5h-65L20,25z"/></svg>
