<?xml version="1.0" encoding="utf-8"?>
<svg viewBox="0 0 500 500" width="100px" height="100px" xmlns="http://www.w3.org/2000/svg" xmlns:bx="https://boxy-svg.com">
  <g transform="matrix(0.021241, 0, 0, -0.02463, 12.430654, 86.028824)" fill="#000000" stroke="none" style="">
    <path d="M8833 3046 c-150 -49 -237 -165 -237 -316 0 -125 64 -227 179 -288 43 -23 62 -27 140 -27 78 0 97 4 140 27 86 45 146 123 171 218 26 101 2 197 -71 286 -70 85 -223 132 -322 100z m164 -31 c75 -22 136 -74 172 -146 59 -119 36 -254 -59 -349 -59 -59 -110 -80 -195 -80 -82 0 -133 20 -195 76 -83 75 -117 191 -86 296 28 99 93 166 191 200 62 22 107 22 172 3z" style=""/>
    <path d="M8770 2740 l0 -190 35 0 35 0 0 70 0 70 56 0 c48 0 59 -4 85 -29 23 -23 29 -39 29 -70 0 -40 1 -41 35 -41 33 0 35 2 35 34 0 53 -19 95 -52 112 l-30 16 30 18 c65 40 80 98 37 148 -32 38 -88 52 -204 52 l-91 0 0 -190z m209 119 c45 -16 53 -55 17 -86 -22 -19 -39 -23 -92 -23 l-64 0 0 60 0 60 54 0 c29 0 67 -5 85 -11z" style=""/>
    <path d="M220 1420 l0 -1310 365 0 365 0 0 565 0 565 565 0 565 0 0 -565 0 -565 370 0 370 0 0 1310 0 1310 -370 0 -370 0 0 -460 0 -460 -565 0 -565 0 0 460 0 460 -365 0 -365 0 0 -1310z" style=""/>
    <path d="M3200 1421 l0 -1311 788 0 c490 0 819 4 871 11 125 15 346 74 426 113 244 120 449 431 510 776 23 126 32 528 16 671 -34 288 -114 513 -248 694 -101 136 -202 214 -364 279 -176 72 -136 69 -1116 73 l-883 4 0 -1310z m1562 691 c175 -59 263 -186 299 -433 17 -120 14 -450 -5 -579 -21 -137 -64 -227 -141 -298 -98 -90 -169 -102 -627 -102 l-338 0 0 721 0 720 373 -3 c353 -4 375 -5 439 -26z" style=""/>
    <path d="M6200 1420 l0 -1310 1195 0 1195 0 0 295 0 295 -822 2 -823 3 -3 1013 -2 1012 -370 0 -370 0 0 -1310z" style=""/>
  </g>
  <path style="fill: none; stroke: rgb(0, 0, 0); stroke-linejoin: round; stroke-linecap: round; stroke-width: 24px;" d="M 274.133 62.59 H 274.165 A 44.8 44.8 0 0 1 318.965 107.39 V 336.171 H 229.333 V 107.39 A 44.8 44.8 0 0 1 274.133 62.59 Z" bx:shape="rect 229.333 62.59 89.632 273.581 44.8 44.8 0 0 1@d6323520"/>
  <circle style="" cx="239.264" cy="378.79" r="108.928" transform="matrix(0.900113, 0, 0, 0.937637, 60.931263, 36.415291)"/>
  <rect x="223.48" y="238.45" width="103.987" height="110.131" style=""/>
</svg>