<?xml version="1.0" encoding="utf-8"?>
<svg viewBox="0 0 500 500" width="100px" height="100px" xmlns="http://www.w3.org/2000/svg">
  <g transform="matrix(0.018768, 0, 0, -0.021762, 41.806343, 110.995667)" fill="#000000" stroke="none" style="">
    <path d="M8833 3046 c-150 -49 -237 -165 -237 -316 0 -125 64 -227 179 -288 43 -23 62 -27 140 -27 78 0 97 4 140 27 86 45 146 123 171 218 26 101 2 197 -71 286 -70 85 -223 132 -322 100z m164 -31 c75 -22 136 -74 172 -146 59 -119 36 -254 -59 -349 -59 -59 -110 -80 -195 -80 -82 0 -133 20 -195 76 -83 75 -117 191 -86 296 28 99 93 166 191 200 62 22 107 22 172 3z" style="fill: rgb(43, 42, 42);"/>
    <path d="M8770 2740 l0 -190 35 0 35 0 0 70 0 70 56 0 c48 0 59 -4 85 -29 23 -23 29 -39 29 -70 0 -40 1 -41 35 -41 33 0 35 2 35 34 0 53 -19 95 -52 112 l-30 16 30 18 c65 40 80 98 37 148 -32 38 -88 52 -204 52 l-91 0 0 -190z m209 119 c45 -16 53 -55 17 -86 -22 -19 -39 -23 -92 -23 l-64 0 0 60 0 60 54 0 c29 0 67 -5 85 -11z" style="fill: rgb(43, 42, 42);"/>
    <path d="M220 1420 l0 -1310 365 0 365 0 0 565 0 565 565 0 565 0 0 -565 0 -565 370 0 370 0 0 1310 0 1310 -370 0 -370 0 0 -460 0 -460 -565 0 -565 0 0 460 0 460 -365 0 -365 0 0 -1310z" style="fill: rgb(43, 42, 42);"/>
    <path d="M3200 1421 l0 -1311 788 0 c490 0 819 4 871 11 125 15 346 74 426 113 244 120 449 431 510 776 23 126 32 528 16 671 -34 288 -114 513 -248 694 -101 136 -202 214 -364 279 -176 72 -136 69 -1116 73 l-883 4 0 -1310z m1562 691 c175 -59 263 -186 299 -433 17 -120 14 -450 -5 -579 -21 -137 -64 -227 -141 -298 -98 -90 -169 -102 -627 -102 l-338 0 0 721 0 720 373 -3 c353 -4 375 -5 439 -26z" style="fill: rgb(43, 42, 42);"/>
    <path d="M6200 1420 l0 -1310 1195 0 1195 0 0 295 0 295 -822 2 -823 3 -3 1013 -2 1012 -370 0 -370 0 0 -1310z" style="fill: rgb(43, 42, 42);"/>
  </g>
  <rect x="21.211" y="19.62" width="459.76" height="460.033" style="stroke: rgb(43, 42, 42); fill: none; stroke-width: 12px;" rx="17.433" ry="17.433"/>
  <line style="fill: rgb(43, 42, 42); stroke: rgb(43, 42, 42); stroke-linecap: round; stroke-width: 20px;" x1="250.66" y1="116.469" x2="250.66" y2="339.729"/>
  <circle style="stroke: rgb(43, 42, 42); fill: none; stroke-width: 20px;" cx="250.51" cy="375.537" r="35.343"/>
  <line style="fill: rgb(43, 42, 42); stroke: rgb(43, 42, 42); stroke-linecap: round; stroke-width: 20px;" x1="306.811" y1="141.372" x2="273.668" y2="141.372"/>
  <line style="fill: rgb(43, 42, 42); stroke: rgb(43, 42, 42); stroke-linecap: round; stroke-width: 20px;" x1="307.127" y1="171.991" x2="273.985" y2="171.991"/>
  <line style="fill: rgb(43, 42, 42); stroke: rgb(43, 42, 42); stroke-linecap: round; stroke-width: 20px;" x1="307.007" y1="203.061" x2="273.864" y2="203.061"/>
  <line style="fill: rgb(43, 42, 42); stroke: rgb(43, 42, 42); stroke-linecap: round; stroke-width: 20px;" x1="226.951" y1="229.544" x2="195.682" y2="229.544"/>
  <line style="fill: rgb(43, 42, 42); stroke: rgb(43, 42, 42); stroke-linecap: round; stroke-width: 20px;" x1="227.25" y1="260.163" x2="195.98" y2="260.163"/>
  <line style="fill: rgb(43, 42, 42); stroke: rgb(43, 42, 42); stroke-linecap: round; stroke-width: 20px;" x1="227.136" y1="291.233" x2="195.867" y2="291.233"/>
</svg>