<svg xmlns="http://www.w3.org/2000/svg" xmlns:xlink="http://www.w3.org/1999/xlink" version="1.1" x="0px" y="0px" viewBox="0 0 100 100" enable-background="new 0 0 100 100" xml:space="preserve"><path d="M50,87.5c4.136,0,7.5-3.364,7.5-7.5c0-3.258-2.092-6.03-5-7.063V17.5c0-1.381-1.119-2.5-2.5-2.5s-2.5,1.119-2.5,2.5v55.438  c-2.908,1.033-5,3.804-5,7.063C42.5,84.136,45.864,87.5,50,87.5z M50,77.5c1.378,0,2.5,1.122,2.5,2.5s-1.122,2.5-2.5,2.5  s-2.5-1.122-2.5-2.5S48.622,77.5,50,77.5z"/><path d="M35,67.5h5c1.381,0,2.5-1.119,2.5-2.5s-1.119-2.5-2.5-2.5h-5c-1.381,0-2.5,1.119-2.5,2.5S33.619,67.5,35,67.5z"/><path d="M35,57.5h5c1.381,0,2.5-1.119,2.5-2.5s-1.119-2.5-2.5-2.5h-5c-1.381,0-2.5,1.119-2.5,2.5S33.619,57.5,35,57.5z"/><path d="M35,47.5h5c1.381,0,2.5-1.119,2.5-2.5s-1.119-2.5-2.5-2.5h-5c-1.381,0-2.5,1.119-2.5,2.5S33.619,47.5,35,47.5z"/><path d="M60,47.5h5c1.381,0,2.5-1.119,2.5-2.5s-1.119-2.5-2.5-2.5h-5c-1.381,0-2.5,1.119-2.5,2.5S58.619,47.5,60,47.5z"/><path d="M60,37.5h5c1.381,0,2.5-1.119,2.5-2.5s-1.119-2.5-2.5-2.5h-5c-1.381,0-2.5,1.119-2.5,2.5S58.619,37.5,60,37.5z"/><path d="M60,27.5h5c1.381,0,2.5-1.119,2.5-2.5s-1.119-2.5-2.5-2.5h-5c-1.381,0-2.5,1.119-2.5,2.5S58.619,27.5,60,27.5z"/><path d="M72.5,5h-45C26.119,5,25,6.119,25,7.5v85c0,1.381,1.119,2.5,2.5,2.5h45c1.381,0,2.5-1.119,2.5-2.5v-85  C75,6.119,73.881,5,72.5,5z M70,90H30V10h40V90z"/></svg>
