<?xml version="1.0" encoding="utf-8"?>
<!-- Generator: Adobe Illustrator 23.0.1, SVG Export Plug-In . SVG Version: 6.00 Build 0)  -->
<svg version="1.1" id="Layer_1" xmlns="http://www.w3.org/2000/svg" xmlns:xlink="http://www.w3.org/1999/xlink" x="0px" y="0px"
	 viewBox="0 0 100 100" style="enable-background:new 0 0 100 100;" xml:space="preserve">
<path d="M70,55c-1.1,0-2.1,0.3-3,0.7V52c0-3.2-2.5-5.8-5.7-6c0.4-0.9,0.7-1.9,0.7-3c0-3.2-2.1-5.8-5-6.7V32c0-3-2.2-5.4-5-5.9V20h15
	c3.9,0,7-3.1,7-7s-3.1-7-7-7H33c-3.9,0-7,3.1-7,7s3.1,7,7,7h15v6.1c-2.8,0.5-5,2.9-5,5.9v4.3c-2.9,0.9-5,3.5-5,6.7
	c0,1.1,0.3,2.1,0.7,3c-3.2,0.2-5.7,2.8-5.7,6v3.7c-0.9-0.4-1.9-0.7-3-0.7c-3.9,0-7,3.1-7,7v18c0,3.9,3.1,7,7,7
	c1.7,0,3.2-0.6,4.5-1.6C36.9,90.5,42,94,48,94h4c6,0,11.1-3.5,13.5-8.6c1.2,1,2.8,1.6,4.5,1.6c3.9,0,7-3.1,7-7V62
	C77,58.1,73.9,55,70,55z M30,13c0-1.7,1.3-3,3-3h34c1.7,0,3,1.3,3,3s-1.3,3-3,3H33C31.3,16,30,14.7,30,13z M47,32c0-1.1,0.9-2,2-2h2
	c1.1,0,2,0.9,2,2v4h-6V32z M45,40h10c1.7,0,3,1.3,3,3s-1.3,3-3,3H45c-1.7,0-3-1.3-3-3S43.3,40,45,40z M33,80c0,1.7-1.3,3-3,3
	s-3-1.3-3-3V62c0-1.7,1.3-3,3-3s3,1.3,3,3v17V80z M52,90h-4c-6.1,0-11-4.9-11-11V62V52c0-1.1,0.9-2,2-2h6h10h6c1.1,0,2,0.9,2,2v10
	v17C63,85.1,58.1,90,52,90z M73,80c0,1.7-1.3,3-3,3s-3-1.3-3-3v-1V62c0-1.7,1.3-3,3-3s3,1.3,3,3V80z"/>
</svg>
