<svg id="Layer_1" data-name="Layer 1" xmlns="http://www.w3.org/2000/svg" viewBox="0 0 122.88 106.91"><defs><style>.cls-1{fill-rule:evenodd;}</style></defs><title>home-heating</title><path class="cls-1" d="M11.51,102.9v-44a9.26,9.26,0,0,1-6.35.3,7.52,7.52,0,0,1-3.5-2.45,7.72,7.72,0,0,1-1.61-4,10,10,0,0,1,2.4-7.37h0a2.19,2.19,0,0,1,.34-.34L59.85.55a2.09,2.09,0,0,1,2.7-.11L119.73,44.9h0a1.79,1.79,0,0,1,.25.23,9.4,9.4,0,0,1,2.67,8.68,8.09,8.09,0,0,1-1.82,3.48,7.88,7.88,0,0,1-3.24,2.19,8.73,8.73,0,0,1-6.78-.44q0,23.92,0,47.87H11.51v-4Zm93.69-1.34v-45c0-1-39.22-32-43.55-35.39-4.59,3.49-44.54,34.25-44.54,35.55v44.82ZM11.51,102.9Zm27-47.57a2.48,2.48,0,0,1,1.9-3.22,3.18,3.18,0,0,1,3.82,1.6c3.61,9.06,1,15.48-1.27,21.12-2,4.85-3.65,9,.76,13.68a2.27,2.27,0,0,1-.51,3.56A3.42,3.42,0,0,1,39,91.65c-6.46-6.86-4.29-12.21-1.76-18.46,2-4.88,4.27-10.44,1.3-17.86Zm18.93,0a2.5,2.5,0,0,1,1.91-3.22,3.19,3.19,0,0,1,3.81,1.6c3.61,9.07,1,15.48-1.27,21.13-2,4.85-3.65,9,.77,13.68a2.26,2.26,0,0,1-.51,3.55,3.4,3.4,0,0,1-4.24-.42c-6.46-6.85-4.29-12.2-1.76-18.46,2-4.87,4.25-10.42,1.29-17.86Zm18.94,0a2.48,2.48,0,0,1,1.9-3.22,3.2,3.2,0,0,1,3.82,1.6c3.61,9.07,1,15.48-1.27,21.13-2,4.85-3.65,9,.76,13.68a2.26,2.26,0,0,1-.51,3.55,3.4,3.4,0,0,1-4.24-.42c-6.46-6.85-4.29-12.2-1.75-18.46,2-4.87,4.24-10.44,1.29-17.86ZM93.75,3.55l17.17.7V27.44L93.75,16.11V3.55Z"/></svg>