<?xml version="1.0" encoding="utf-8"?>
<svg viewBox="0 0 500 500" width="100px" height="100px" xmlns="http://www.w3.org/2000/svg" xmlns:bx="https://boxy-svg.com">
  <g transform="matrix(0.021241, 0, 0, -0.02463, 14.637479, 84.736488)" fill="#000000" stroke="none" style="">
    <path d="M8833 3046 c-150 -49 -237 -165 -237 -316 0 -125 64 -227 179 -288 43 -23 62 -27 140 -27 78 0 97 4 140 27 86 45 146 123 171 218 26 101 2 197 -71 286 -70 85 -223 132 -322 100z m164 -31 c75 -22 136 -74 172 -146 59 -119 36 -254 -59 -349 -59 -59 -110 -80 -195 -80 -82 0 -133 20 -195 76 -83 75 -117 191 -86 296 28 99 93 166 191 200 62 22 107 22 172 3z" style=""/>
    <path d="M8770 2740 l0 -190 35 0 35 0 0 70 0 70 56 0 c48 0 59 -4 85 -29 23 -23 29 -39 29 -70 0 -40 1 -41 35 -41 33 0 35 2 35 34 0 53 -19 95 -52 112 l-30 16 30 18 c65 40 80 98 37 148 -32 38 -88 52 -204 52 l-91 0 0 -190z m209 119 c45 -16 53 -55 17 -86 -22 -19 -39 -23 -92 -23 l-64 0 0 60 0 60 54 0 c29 0 67 -5 85 -11z" style=""/>
    <path d="M220 1420 l0 -1310 365 0 365 0 0 565 0 565 565 0 565 0 0 -565 0 -565 370 0 370 0 0 1310 0 1310 -370 0 -370 0 0 -460 0 -460 -565 0 -565 0 0 460 0 460 -365 0 -365 0 0 -1310z" style=""/>
    <path d="M3200 1421 l0 -1311 788 0 c490 0 819 4 871 11 125 15 346 74 426 113 244 120 449 431 510 776 23 126 32 528 16 671 -34 288 -114 513 -248 694 -101 136 -202 214 -364 279 -176 72 -136 69 -1116 73 l-883 4 0 -1310z m1562 691 c175 -59 263 -186 299 -433 17 -120 14 -450 -5 -579 -21 -137 -64 -227 -141 -298 -98 -90 -169 -102 -627 -102 l-338 0 0 721 0 720 373 -3 c353 -4 375 -5 439 -26z" style=""/>
    <path d="M6200 1420 l0 -1310 1195 0 1195 0 0 295 0 295 -822 2 -823 3 -3 1013 -2 1012 -370 0 -370 0 0 -1310z" style=""/>
  </g>
  <rect x="73.792" y="202.346" width="328.771" height="245.176" style="stroke: rgb(0, 0, 0); stroke-linecap: round; stroke-linejoin: round; fill: none; stroke-width: 29px;"/>
  <path d="M 131.653 27.144 L 293.605 128.739 L -30.299 128.739 L 131.653 27.144 Z" style="fill: none; stroke-miterlimit: 0; stroke-linecap: round; stroke: rgb(4, 6, 0); stroke-width: 32px; stroke-linejoin: round;" transform="matrix(1, 0.00057, -0.00057, 1, 106.096611, 72.868172)" bx:shape="triangle -30.299 27.144 323.904 101.595 0.5 0 1@599850f6"/>
  <g style="" transform="matrix(1.441284, 0, 0, 1.441284, -107.8284, -185.350464)">
    <g style="" transform="matrix(-1, 0, 0, 0.92138, 463.283081, 34.808037)">
      <path d="M 194.248 343.206 C 186.671 347.439 178.363 358.397 184.789 370.688 C 186.445 373.856 191.123 379.767 193.603 382.866 C 204.73 396.77 200.905 410.721 185.307 419.284" style="stroke: rgb(0, 0, 0); fill: none; stroke-linecap: round; stroke-linejoin: round; stroke-width: 10px;"/>
      <path d="M 227.39 344.016 C 219.813 348.249 211.505 359.207 217.931 371.498 C 219.587 374.666 224.265 380.577 226.745 383.676 C 237.872 397.58 234.047 411.531 218.449 420.094" style="stroke: rgb(0, 0, 0); fill: none; stroke-linecap: round; stroke-linejoin: round; stroke-width: 10px;"/>
      <path d="M 259.91 342.422 C 252.333 346.655 244.025 357.613 250.451 369.904 C 252.107 373.072 256.785 378.983 259.265 382.082 C 270.392 395.986 266.567 409.937 250.969 418.5" style="stroke: rgb(0, 0, 0); fill: none; stroke-linecap: round; stroke-linejoin: round; stroke-width: 10px;"/>
    </g>
  </g>
  <path stroke-width="0" d="M 296.78 173.379 C 299.804 172.717 302.641 172.514 305.482 173.379 C 308.266 174.227 311.614 176.292 313.854 178.534 C 315.108 177.971 316.423 177.642 317.943 177.331 C 321.121 176.682 324.739 176.369 329.019 177.331 C 334.609 178.589 341.293 181.769 348.797 186.034 C 357.011 190.702 371.36 198.705 379.017 205.717 C 379.069 205.736 379.121 205.755 379.172 205.775 C 381.793 206.775 384.348 207.902 385.897 210.918 C 388.147 215.295 389.559 226.963 388.271 232.279 C 387.274 236.391 384.276 239.476 381.546 241.377 C 379.052 243.112 375.986 244.178 372.843 243.75 C 369.099 243.24 363.096 240.935 360.581 237.025 C 359.76 235.75 359.136 233.98 358.683 231.981 C 358.554 231.956 358.424 231.935 358.291 231.92 C 353.72 231.405 347.001 237.768 341.677 237.458 C 336.461 237.154 331.547 230.754 326.645 230.338 C 322.067 229.949 317.178 234.887 313.196 234.293 C 312.304 234.16 311.391 233.879 310.49 233.488 C 308.025 234.734 305.027 235.264 302.318 235.088 C 298.946 234.869 295.662 231.675 292.033 231.132 C 288.291 230.572 284.112 232.736 280.166 231.923 C 275.935 231.051 271.325 225.404 267.508 225.594 C 264.005 225.768 261.611 230.846 258.014 231.923 C 254.264 233.046 249.332 233.065 245.356 231.923 C 241.276 230.752 236.611 224.484 233.884 224.803 C 231.782 225.049 231.44 228.801 229.533 230.341 C 227.444 232.027 224.611 233.608 221.621 234.297 C 218.351 235.05 214.051 235.298 210.545 234.297 C 206.917 233.26 203.286 227.863 200.261 227.967 C 197.568 228.06 196.119 232.305 193.14 233.505 C 189.719 234.884 184.819 235.917 180.482 235.088 C 175.619 234.157 169.513 227.06 165.451 227.176 C 162.21 227.269 160.525 231.78 157.539 232.714 C 154.477 233.673 151.204 233.674 147.254 232.714 C 142.083 231.458 135.357 223.662 129.058 224.012 C 122.213 224.392 113.184 234.996 107.697 236.67 C 104.09 237.77 101.815 237.626 98.995 236.67 C 95.863 235.608 91.695 233.055 89.897 229.945 C 88.01 226.682 87.437 220.884 88.314 217.287 C 89.117 213.997 90.327 212.553 94.248 208.98 C 101.893 202.014 126.826 184.168 139.343 178.917 C 148.27 175.172 156.577 174.09 162.286 174.961 C 166.514 175.606 167.941 179.999 171.78 180.499 C 176.358 181.095 183.568 176.043 188.394 176.543 C 192.637 176.983 196.05 182.103 199.47 182.081 C 202.598 182.062 204.77 178.174 208.172 177.335 C 212.016 176.386 218.151 176.402 221.621 177.335 C 224.363 178.071 225.751 181.245 227.951 181.29 C 230.228 181.337 232.279 178.034 235.071 177.335 C 238.228 176.543 242.92 176.333 246.147 177.335 C 249.201 178.283 251.578 182.765 254.058 182.872 C 256.296 182.969 257.745 179.737 260.387 178.917 C 263.57 177.929 268.551 177.324 272.254 178.126 C 275.931 178.922 280.189 184.139 282.539 183.664 C 284.407 183.285 284.185 179.711 286.099 178.126 C 288.508 176.131 293.376 174.123 296.78 173.379 Z" style="stroke-width: 2px; fill: rgb(255, 255, 255);"/>
</svg>