<svg xmlns="http://www.w3.org/2000/svg" xmlns:xlink="http://www.w3.org/1999/xlink" version="1.2" baseProfile="tiny" x="0px" y="0px" viewBox="0 0 100 100" xml:space="preserve"><path d="M50,5C25.187,5,5,25.187,5,50s20.187,45,45,45s45-20.187,45-45S74.813,5,50,5z M50,90c-22.056,0-40-17.944-40-40  s17.944-40,40-40s40,17.944,40,40S72.056,90,50,90z"/><path d="M18.138,48.332c-0.85,0.949-0.85,2.387,0,3.336C18.716,52.314,32.516,67.5,50,67.5s31.284-15.186,31.862-15.832  c0.85-0.949,0.85-2.387,0-3.336C81.284,47.686,67.484,32.5,50,32.5S18.716,47.686,18.138,48.332z M50,62.5  c-12.026,0-22.532-8.753-26.477-12.5C27.469,46.253,37.974,37.5,50,37.5c12.025,0,22.53,8.752,26.477,12.5  C72.53,53.748,62.025,62.5,50,62.5z"/><path d="M42.5,50c0,4.136,3.364,7.5,7.5,7.5s7.5-3.364,7.5-7.5s-3.364-7.5-7.5-7.5S42.5,45.864,42.5,50z M52.5,50  c0,1.379-1.122,2.5-2.5,2.5s-2.5-1.121-2.5-2.5s1.122-2.5,2.5-2.5S52.5,48.621,52.5,50z"/></svg>
