<svg xmlns="http://www.w3.org/2000/svg" xmlns:xlink="http://www.w3.org/1999/xlink" version="1.2" baseProfile="tiny" x="0px" y="0px" viewBox="0 0 100 100" xml:space="preserve"><path d="M17.5,95h65V5h-65V95z M25.054,87.5c1-1.804,10.122-5,24.946-5s23.946,3.196,24.946,5H25.054z M74.946,12.5  c-1,1.804-10.122,5-24.946,5s-23.946-3.196-24.946-5H74.946z M25,18.453c6.368,3.078,17.451,4.047,25,4.047s18.632-0.969,25-4.047  v63.095C68.632,78.469,57.549,77.5,50,77.5s-18.632,0.969-25,4.047V18.453z"/><path d="M70,27.5H30v36.25h40V27.5z M65,58.75H35V32.5h30V58.75z"/><rect x="47.5" y="67.5" width="5" height="5"/></svg>
